<svg xmlns="http://www.w3.org/2000/svg" width="17.488" height="20" viewBox="0 0 17.488 20">
  <g id="user_1_" data-name="user (1)" transform="translate(-26.824 -2.002)">
    <path id="Path_10" data-name="Path 10" d="M39.216,12.3l-.054-.024c-.129-.058-.258-.114-.39-.165s-.29-.111-.438-.161c-.117-.038-.235-.074-.354-.109-.181-.052-.365-.1-.553-.142-.064-.013-.129-.026-.194-.038l-.044-.009c-.111-.022-.223-.041-.337-.058l-.032-.005h0l-.032,0c-.094-.014-.187-.027-.285-.038l-.331-.027a8.957,8.957,0,0,0-1.23,0l-.117.01-.055,0-.137.012c-.126.013-.251.031-.376.051l-.037.005c-.085.014-.171.03-.255.046s-.186.035-.278.055c-.178.04-.356.086-.527.136-.137.039-.272.082-.4.126L32.668,12c-.269.1-.536.2-.8.325l-.069.033v0a8.779,8.779,0,0,0-4.978,7.884c0,.077.005.152.01.228l.023.531H44.279l.023-.525c.005-.078.01-.155.01-.234A8.767,8.767,0,0,0,39.216,12.3ZM27.678,20.148A7.915,7.915,0,0,1,32.2,13.112l.087-.034.01-.01c.212-.1.431-.185.653-.263l.07-.025c.121-.042.241-.08.366-.116.156-.046.315-.087.474-.123.082-.017.165-.034.25-.05.067-.012.134-.025.2-.036l.033-.006c.122-.019.245-.037.367-.05L35,12.375a7.5,7.5,0,0,1,1.139,0l.272.023c.067.008.134.017.216.028l.1.014c.1.015.2.032.307.052l.048.009.169.033c.168.037.334.08.5.128.108.032.216.064.321.1q.2.067.4.144t.371.158l.021.01a7.911,7.911,0,0,1,4.608,7.075H27.678Zm5.779-8.674c.064.027.13.05.2.074l.139.05c.053.02.107.041.162.058a5.413,5.413,0,0,0,1.583.247h.043a5.421,5.421,0,0,0,.55-.028c.061-.006.121-.016.181-.026l.134-.02c.075-.01.15-.021.229-.036.054-.011.106-.025.158-.039l.146-.037c.072-.017.144-.035.216-.057.044-.014.088-.03.131-.047l.117-.042c.084-.029.168-.059.253-.094.033-.014.065-.029.1-.045l.038-.019c.116-.052.231-.1.345-.166l.074-.044c.128-.073.256-.148.385-.236.067-.045.131-.1.194-.146l.219-.17A5.409,5.409,0,0,0,41.028,6.5l0-.045a5.448,5.448,0,0,0-10.885-.343l0,.071c-.007.09-.012.18-.012.272A5.44,5.44,0,0,0,33.457,11.474ZM30.993,6.239,31,6.162a4.595,4.595,0,0,1,9.181.251l0,.045A4.6,4.6,0,0,1,38.5,10l-.2.155c-.045.037-.091.073-.148.113-.1.07-.211.132-.321.195l-.061.037c-.092.05-.189.093-.29.138l-.113.055c-.065.027-.133.05-.2.074l-.141.051c-.027.01-.055.021-.082.029-.052.016-.106.029-.16.042l-.17.044c-.037.01-.073.02-.105.027-.057.011-.115.019-.173.027l-.162.024c-.039.007-.123.018-.123.018s-.285.023-.43.024h-.041a4.575,4.575,0,0,1-1.366-.208c-.038-.012-.075-.027-.112-.041l-.161-.058c-.05-.018-.1-.035-.147-.055a4.591,4.591,0,0,1-2.807-4.235C30.982,6.381,30.988,6.31,30.993,6.239Z" transform="translate(0 1)"/>
  </g>
</svg>
